<svg xmlns="http://www.w3.org/2000/svg" viewBox="0 0 24.15 23.58"><defs><style>.cls-2{fill:#0f172a}</style></defs><g id="Layer_2" data-name="Layer 2"><g id="Layer_1-2" data-name="Layer 1"><path style="fill:#fb923c" d="M.51 3.72h23.18v6H.51z"/><path class="cls-2" d="M24.15 23.58H0V3h24.15Zm-23.4-.75H23.4V3.74H.75Z"/><path class="cls-2" d="M3.13 0h.75v3.34h-.75zM20.32 0h.75v3.34h-.75zM7.08 19.2h-4v-.84l1.44-1.45c.42-.43.7-.73.83-.9a2.22 2.22 0 0 0 .28-.47 1.12 1.12 0 0 0 .09-.44.7.7 0 0 0-.19-.52.76.76 0 0 0-.53-.16 1.43 1.43 0 0 0-.64.15 3.68 3.68 0 0 0-.66.43l-.65-.77a4.09 4.09 0 0 1 .7-.51 2.27 2.27 0 0 1 .6-.23 3.36 3.36 0 0 1 .74-.08 2.16 2.16 0 0 1 .94.19 1.51 1.51 0 0 1 .64.55 1.48 1.48 0 0 1 .23.81 2 2 0 0 1-.14.74 3.45 3.45 0 0 1-.43.71 12.1 12.1 0 0 1-1 1l-.73.69v.06h2.48ZM11.61 16.35a4 4 0 0 1-.49 2.21 1.7 1.7 0 0 1-1.51.72 1.68 1.68 0 0 1-1.49-.74 4 4 0 0 1-.5-2.19 4 4 0 0 1 .49-2.23 1.67 1.67 0 0 1 1.5-.72 1.67 1.67 0 0 1 1.49.75 3.91 3.91 0 0 1 .51 2.2Zm-2.79 0a4.43 4.43 0 0 0 .18 1.5.62.62 0 0 0 .61.46.65.65 0 0 0 .61-.46 4.45 4.45 0 0 0 .19-1.5 4.44 4.44 0 0 0-.19-1.51.64.64 0 0 0-.61-.46.63.63 0 0 0-.61.46 4.5 4.5 0 0 0-.18 1.51ZM16.21 19.2h-4v-.84l1.43-1.45c.42-.43.7-.73.83-.9a1.86 1.86 0 0 0 .28-.47 1.12 1.12 0 0 0 .09-.44.67.67 0 0 0-.19-.52.76.76 0 0 0-.51-.16 1.46 1.46 0 0 0-.64.15 3.31 3.31 0 0 0-.65.43l-.66-.77a4.09 4.09 0 0 1 .7-.51 2.41 2.41 0 0 1 .6-.23 3.36 3.36 0 0 1 .74-.08 2.13 2.13 0 0 1 .94.19 1.51 1.51 0 0 1 .64.55 1.48 1.48 0 0 1 .23.81 2 2 0 0 1-.14.74 3.06 3.06 0 0 1-.43.71 10.74 10.74 0 0 1-1 1l-.73.69v.06h2.49ZM20.77 19.2h-4v-.84l1.44-1.45c.42-.43.7-.73.83-.9a2.22 2.22 0 0 0 .28-.47 1.12 1.12 0 0 0 .09-.44.7.7 0 0 0-.19-.52.76.76 0 0 0-.51-.16 1.43 1.43 0 0 0-.64.15 3.68 3.68 0 0 0-.66.43l-.65-.77a4.09 4.09 0 0 1 .7-.51 2.27 2.27 0 0 1 .6-.23 3.36 3.36 0 0 1 .74-.08 2.16 2.16 0 0 1 .94.19 1.57 1.57 0 0 1 .64.55 1.47 1.47 0 0 1 .22.81 2 2 0 0 1-.13.74 3.45 3.45 0 0 1-.43.71 12.1 12.1 0 0 1-1 1l-.73.69v.06h2.48ZM.51 9.72h23.18v.75H.51z"/></g></g></svg>